<?xml version="1.0" encoding="UTF-8" standalone="no"?>
<!-- Generator: Adobe Illustrator 16.0.0, SVG Export Plug-In . SVG Version: 6.00 Build 0)  -->

<svg
   xmlns:dc="http://purl.org/dc/elements/1.1/"
   xmlns:cc="http://creativecommons.org/ns#"
   xmlns:rdf="http://www.w3.org/1999/02/22-rdf-syntax-ns#"
   xmlns:svg="http://www.w3.org/2000/svg"
   xmlns="http://www.w3.org/2000/svg"
   xmlns:sodipodi="http://sodipodi.sourceforge.net/DTD/sodipodi-0.dtd"
   xmlns:inkscape="http://www.inkscape.org/namespaces/inkscape"
   version="1.1"
   id="Capa_1"
   x="0px"
   y="0px"
   width="188.547px"
   height="188.547px"
   viewBox="0 0 188.547 188.547"
   style="enable-background:new 0 0 188.547 188.547;"
   xml:space="preserve"
   sodipodi:docname="empty.svg"
   inkscape:version="0.92.3 (2405546, 2018-03-11)"><metadata
   id="metadata41"><rdf:RDF><cc:Work
       rdf:about=""><dc:format>image/svg+xml</dc:format><dc:type
         rdf:resource="http://purl.org/dc/dcmitype/StillImage" /></cc:Work></rdf:RDF></metadata><defs
   id="defs39" /><sodipodi:namedview
   pagecolor="#ffffff"
   bordercolor="#666666"
   borderopacity="1"
   objecttolerance="10"
   gridtolerance="10"
   guidetolerance="10"
   inkscape:pageopacity="0"
   inkscape:pageshadow="2"
   inkscape:window-width="1920"
   inkscape:window-height="998"
   id="namedview37"
   showgrid="false"
   inkscape:zoom="1.2516773"
   inkscape:cx="94.273499"
   inkscape:cy="94.273499"
   inkscape:window-x="0"
   inkscape:window-y="32"
   inkscape:window-maximized="1"
   inkscape:current-layer="Capa_1" />
<g
   id="g4"
   style="fill:#222d32;fill-opacity:1">
	<path
   d="M94.589,145.478v13.019h46.765l6.235,6.235v6.235H29.118v-6.235l6.235-6.235h46.765v-13.025H15.281   C6.884,145.471,0,138.584,0,130.188V32.861c0-8.397,6.877-15.281,15.281-15.281h146.143c8.415,0,15.284,6.875,15.284,15.281V64.05   c-1.925-2.125-3.964-4.125-6.235-5.849v-25.34c0-4.987-4.056-9.045-9.049-9.045H15.281c-4.993,0-9.045,4.058-9.045,9.045v78.626   c0,4.993,4.052,9.049,9.045,9.049h90.184c8.476,12.124,22.426,19.57,37.405,19.57c2.49,0,4.957-0.268,7.398-0.676l3.508,6.053   H94.589V145.478z M176.951,74.77c10.863,18.816,4.396,42.977-14.432,53.822c-18.815,10.863-42.965,4.415-53.828-14.425   c-10.859-18.804-4.396-42.953,14.42-53.813C141.919,49.491,166.082,55.951,176.951,74.77z M171.3,78.043   c-9.073-15.707-29.222-21.099-44.926-12.054c-15.704,9.073-21.111,29.216-12.026,44.92c9.066,15.704,29.21,21.136,44.907,12.062   C174.965,113.887,180.355,93.744,171.3,78.043z M172.42,126.162l-16.94,9.792l13.056,22.566l16.94-9.792L172.42,126.162z    M187.229,151.834l-16.952,9.779c2.716,4.689,8.695,6.284,13.378,3.593S189.939,156.523,187.229,151.834z M108.058,45.64H26v6.235   h82.058V45.64z M86.795,60.366H26v6.235h60.794V60.366z M86.795,75.099H26v6.235h60.794V75.099z M26,96.063h60.794v-6.235H26   V96.063z"
   id="path2"
   style="fill:#222d32;fill-opacity:1" />
</g>
<g
   id="g6">
</g>
<g
   id="g8">
</g>
<g
   id="g10">
</g>
<g
   id="g12">
</g>
<g
   id="g14">
</g>
<g
   id="g16">
</g>
<g
   id="g18">
</g>
<g
   id="g20">
</g>
<g
   id="g22">
</g>
<g
   id="g24">
</g>
<g
   id="g26">
</g>
<g
   id="g28">
</g>
<g
   id="g30">
</g>
<g
   id="g32">
</g>
<g
   id="g34">
</g>
</svg>