<svg height="512" viewBox="0 0 128 128" width="512" xmlns="http://www.w3.org/2000/svg"><g><path d="m68.568 73.1h-.059a33.368 33.368 0 0 0 27-44.031l-7.931-22.763h-47.156l-7.927 22.758a33.368 33.368 0 0 0 27 44.031h-.059v41.191l-19.589 7.408h48.31l-19.589-7.408z" fill="#dcf2f7"/><path d="m39.443 31.443a26 26 0 0 0 24.557 34.557 26 26 0 0 0 24.557-34.557l-1.024-2.938s-10.439 9.55-23.533 2.938a27.229 27.229 0 0 0 -24.557 0z" fill="#BA9600"/><g fill="#BA9600"><path d="m81.112 15.891h-10.195a1.75 1.75 0 0 1 0-3.5h10.195a1.75 1.75 0 0 1 0 3.5z"/><path d="m63.161 15.891h-4.5a1.75 1.75 0 0 1 0-3.5h4.5a1.75 1.75 0 0 1 0 3.5z"/></g></g></svg>
